:SAMPLES-PER-SECOND 24
:FULLY-SPECIFIED
:DEGREES
357
root  2.38707 39.4575 25.9874 5.32745 -30.455 -0.774597
RightUpLeg  -9.68796 3.31014 3.25762
RightLeg  19.3359 -15.6062 -6.19897
RightFoot  -13.8942 -0.187598 -4.20236
RightToes  -2.08645e-008 3.77894e-005 6.81332e-007
Spine  1.18281 2.19982 3.21332
Spine1  7.75954 2.04898 0.835393
HEad  -26.1922 19.9707 -7.88568
LeftShoulder1  7.10224 -12.881 -37.2678
LeftArm  -0.165316 33.196 -23.425
LeftForeArm  126.964 -79.5971 -114.309
LeftHand  -0.487434 -1.66278 8.20111
RightShoulder  4.17498 6.88582 34.2928
RightArm  11.8256 -24.5674 29.5228
RightForeArm  102.475 80.7236 83.4483
RightHand  -0.517151 8.42255 -4.71514
LeftUpLeg  -23.8425 9.85603 5.97044
LeftLeg  41.5157 1.74976 2.03349
LeftFoot  -4.7034 0.804034 -13.3235
LeftToes  1.24767e-006 1.47042e-008 1.32732e-009
358
root  2.17742 39.4722 26.3969 5.19318 -32.411 -0.0567017
RightUpLeg  -9.31943 4.4529 2.4345
RightLeg  19.3279 -14.8944 -5.94983
RightFoot  -14.4065 -0.196976 -3.72282
RightToes  -2.08645e-008 3.77894e-005 6.81332e-007
Spine  2.2901 2.17664 2.76734
Spine1  7.17897 2.02249 0.903044
HEad  -27.7562 21.1166 -9.43189
LeftShoulder1  6.80049 -12.6364 -36.0905
LeftArm  4.0277 33.8017 -21.1064
LeftForeArm  146.203 -76.6602 -134.844
LeftHand  -0.458307 -1.36196 8.03973
RightShoulder  4.02485 6.75384 33.3517
RightArm  13.9026 -26.9783 28.6172
RightForeArm  129.936 79.8178 113.718
RightHand  -0.50812 8.06528 -4.74696
LeftUpLeg  -23.7094 8.10099 5.89614
LeftLeg  32.4166 2.92876 2.35862
LeftFoot  -5.01683 0.75967 -13.1625
LeftToes  1.24767e-006 1.47042e-008 1.32732e-009
359
root  2.08516 39.4271 26.8249 5.45752 -34.8847 0.0664062
RightUpLeg  -9.48226 4.20112 1.80261
RightLeg  19.7754 -12.3777 -5.10544
RightFoot  -15.1805 -0.217024 -3.40659
RightToes  -2.08645e-008 3.77894e-005 6.81332e-007
Spine  4.19012 2.0568 3.11827
Spine1  6.09717 1.99958 0.490584
HEad  -30.2165 22.6281 -11.6346
LeftShoulder1  6.62576 -12.4998 -35.3751
LeftArm  7.2688 34.3113 -19.7795
LeftForeArm  156.574 -73.4065 -145.668
LeftHand  -0.441658 -1.60791 7.50134
RightShoulder  3.90518 6.65391 32.5609
RightArm  16.5111 -28.2086 27.9715
RightForeArm  145.331 77.5536 131.293
RightHand  -0.485369 8.09037 -4.54317
LeftUpLeg  -23.0709 4.4968 6.97973
LeftLeg  21.8829 2.02587 1.22674
LeftFoot  -5.35872 0.759033 -13.8574
LeftToes  1.24767e-006 1.47042e-008 1.32732e-009
360
root  2.09847 39.2516 27.1642 5.27863 -38.2447 0.179138
RightUpLeg  -10.5377 3.86082 0.976115
RightLeg  22.3379 -8.90651 -4.20877
RightFoot  -16.6489 -0.259562 -3.1639
RightToes  -2.08645e-008 3.77894e-005 6.81332e-007
Spine  7.88917 2.12184 2.77438
Spine1  4.43613 2.16686 0.224656
HEad  -34.0181 24.3407 -14.1079
LeftShoulder1  6.47772 -12.3827 -34.7581
LeftArm  8.55185 33.1799 -20.5455
LeftForeArm  161.352 -72.1521 -148.842
LeftHand  -0.428649 -2.12202 6.82414
RightShoulder  3.93456 6.6952 32.6924
RightArm  18.3593 -27.1582 27.1747
RightForeArm  151.438 76.3013 137.212
RightHand  -0.541993 8.00784 -5.05546
LeftUpLeg  -22.7272 1.59158 8.47339
LeftLeg  13.894 -0.489056 0.449204
LeftFoot  -4.37485 0.890939 -14.1541
LeftToes  1.24767e-006 1.47042e-008 1.32732e-009
361
root  2.19521 38.7991 27.4487 4.2674 -41.6738 0.544067
RightUpLeg  -12.7759 3.97376 -0.0364567
RightLeg  28.3777 -5.69074 -3.54343
RightFoot  -19.2178 -0.289294 -2.32199
RightToes  -2.08645e-008 3.77894e-005 6.81332e-007
Spine  12.9293 2.2619 1.53773
Spine1  2.2896 2.25554 0.505549
HEad  -37.9753 25.9956 -16.2634
LeftShoulder1  6.31609 -12.2783 -34.0155
LeftArm  8.34662 29.8306 -22.6436
LeftForeArm  159.225 -73.4053 -146.122
LeftHand  -0.388742 -2.39562 6.0068
RightShoulder  3.94906 6.72338 32.728
RightArm  18.8736 -24.8022 27.9542
RightForeArm  147.429 77.1154 133.625
RightHand  -0.476863 8.2465 -4.42791
LeftUpLeg  -23.3733 0.334161 9.52925
LeftLeg  12.4242 -3.61085 0.0153201
LeftFoot  -1.86415 1.222 -14.5355
LeftToes  1.24767e-006 1.47042e-008 1.32732e-009
362
root  2.34009 38.0847 27.8262 3.78772 -43.8362 0.36377
RightUpLeg  -15.44 3.80605 -0.610383
RightLeg  35.4418 -3.68317 -3.07015
RightFoot  -22.6348 -0.30497 -1.53489
RightToes  -2.08645e-008 3.77894e-005 6.81332e-007
Spine  16.679 1.7662 1.32322
Spine1  1.20318 1.80297 0.386228
HEad  -41.1869 27.6425 -18.5207
LeftShoulder1  6.59854 -12.5748 -35.0181
LeftArm  7.98972 22.915 -22.6583
LeftForeArm  145.096 -76.6522 -134.622
LeftHand  -0.4191 -2.53492 6.35611
RightShoulder  3.93914 6.73771 32.5766
RightArm  17.6207 -21.0935 31.091
RightForeArm  121.239 80.0367 108.074
RightHand  -0.569478 8.19618 -5.22901
LeftUpLeg  -26.3187 -0.5506 10.5768
LeftLeg  18.5252 -4.39773 -1.31603
LeftFoot  -0.949983 1.3508 -14.7277
LeftToes  1.24767e-006 1.47042e-008 1.32732e-009
